<svg xmlns="http://www.w3.org/2000/svg" viewBox="0 0 64 64" role="img" aria-labelledby="title">
  <title>Audio waveform favicon</title>
  <rect width="64" height="64" rx="12" fill="#0b0b0b" />
  <path
    d="M6 36h7.5c2.8 0 4.6-1.6 6-4.4l2.8-5.7c0.6-1.3 1.3-1.9 2.2-1.9 1 0 1.7 0.9 2.1 2.9l1.9 9.1c0.4 1.7 1 2.5 1.9 2.5s1.5-0.8 1.9-2.4l4.8-20.8c0.4-1.8 1.1-2.7 2.1-2.7s1.7 0.9 2.2 2.7l5.2 24c0.4 1.8 1.1 2.7 2 2.7 1 0 1.7-0.9 2.1-2.8l3.5-15.3c0.4-1.7 1.1-2.5 2-2.5 1 0 1.7 0.8 2.3 2.3l2.3 5.8c1.2 2.8 3 4.5 5.8 4.5H58"
    fill="none"
    stroke="#ffffff"
    stroke-linecap="round"
    stroke-linejoin="round"
    stroke-width="4.2"
  />
</svg>
